<?xml version="1.0" encoding="UTF-8" standalone="no"?>
<!-- Created with Inkscape (http://www.inkscape.org/) -->

<svg
   xmlns:dc="http://purl.org/dc/elements/1.1/"
   xmlns:cc="http://creativecommons.org/ns#"
   xmlns:rdf="http://www.w3.org/1999/02/22-rdf-syntax-ns#"
   xmlns:svg="http://www.w3.org/2000/svg"
   xmlns="http://www.w3.org/2000/svg"
   xmlns:sodipodi="http://sodipodi.sourceforge.net/DTD/sodipodi-0.dtd"
   xmlns:inkscape="http://www.inkscape.org/namespaces/inkscape"
   width="148.58646mm"
   height="138.95421mm"
   viewBox="0 0 148.58646 138.95421"
   version="1.1"
   id="svg8"
   sodipodi:docname="landingPage.svg"
   inkscape:version="0.92.3 (2405546, 2018-03-11)">
  <defs
     id="defs2">
    <clipPath
       id="clip1">
      <rect
         width="384"
         height="384"
         x="0"
         y="0"
         id="rect10" />
    </clipPath>
    <mask
       id="mask0">
      <g
         style="filter:url(#alpha)"
         id="g7"
         transform="scale(0.26458333)">
        <rect
           width="384"
           height="384"
           x="0"
           y="0"
           style="fill:#000000;fill-opacity:0.94902003"
           id="rect5" />
      </g>
    </mask>
    <filter
       id="alpha"
       width="1"
       height="1"
       x="0"
       y="0"
       filterUnits="objectBoundingBox">
      <feColorMatrix
         in="SourceGraphic"
         type="matrix"
         values="0 0 0 0 1 0 0 0 0 1 0 0 0 0 1 0 0 0 1 0"
         id="feColorMatrix2" />
    </filter>
    <clipPath
       id="clipPath72">
      <rect
         width="384"
         height="384"
         x="0"
         y="0"
         id="rect70" />
    </clipPath>
    <clipPath
       id="clip2">
      <rect
         width="384"
         height="384"
         x="0"
         y="0"
         id="rect21" />
    </clipPath>
    <mask
       id="mask1">
      <g
         style="filter:url(#alpha)"
         id="g18"
         transform="scale(0.26458333)">
        <rect
           width="384"
           height="384"
           x="0"
           y="0"
           style="fill:#000000;fill-opacity:0.10196102"
           id="rect16" />
      </g>
    </mask>
    <filter
       id="filter81"
       width="1"
       height="1"
       x="0"
       y="0"
       filterUnits="objectBoundingBox">
      <feColorMatrix
         in="SourceGraphic"
         type="matrix"
         values="0 0 0 0 1 0 0 0 0 1 0 0 0 0 1 0 0 0 1 0"
         id="feColorMatrix79" />
    </filter>
    <clipPath
       id="clipPath85">
      <rect
         width="384"
         height="384"
         x="0"
         y="0"
         id="rect83" />
    </clipPath>
    <clipPath
       clipPathUnits="userSpaceOnUse"
       id="clipPath3856">
      <path
         sodipodi:nodetypes="cscsccccsccc"
         inkscape:connector-curvature="0"
         id="path3858"
         d="m 1390,-159.25 c -2.6127,0.0409 -5.1785,1.1577 -7,3.03125 -1.8215,1.87354 -2.8764,4.4809 -2.8438,7.09375 0,0 -15.2187,55.333421 -15.2187,83.6875 0,28.354079 15.2187,83.6875 15.2187,83.6875 0.9232,15.068495 0.4063,30.851 0.4063,46.1875 h 18 c -2.025,-14.71118 1.625,-32.821268 1.5937,-46.1875 0,0 14.0626,-55.40074 14.0626,-83.6875 0,-28.28676 -14.0626,-83.6875 -14.0626,-83.6875 0.033,-2.66492 -1.05,-5.33713 -2.9374,-7.21875 -1.8876,-1.88163 -4.554,-2.94782 -7.2188,-2.90625 z"
         style="color:#000000;font-style:normal;font-variant:normal;font-weight:normal;font-stretch:normal;font-size:medium;line-height:normal;font-family:Sans;-inkscape-font-specification:Sans;text-indent:0;text-align:start;text-decoration:none;text-decoration-line:none;letter-spacing:normal;word-spacing:normal;text-transform:none;writing-mode:lr-tb;direction:ltr;baseline-shift:baseline;text-anchor:start;display:inline;overflow:visible;visibility:visible;fill:#1f2831;fill-opacity:1;stroke:none;stroke-width:20;marker:none;enable-background:accumulate" />
    </clipPath>
  </defs>
  <sodipodi:namedview
     id="base"
     pagecolor="#ffffff"
     bordercolor="#666666"
     borderopacity="1.0"
     inkscape:pageopacity="0.0"
     inkscape:pageshadow="2"
     inkscape:zoom="0.50000001"
     inkscape:cx="160.67485"
     inkscape:cy="142.98446"
     inkscape:document-units="mm"
     inkscape:current-layer="layer1"
     showgrid="false"
     showguides="true"
     inkscape:guide-bbox="true"
     inkscape:window-width="1244"
     inkscape:window-height="773"
     inkscape:window-x="36"
     inkscape:window-y="27"
     inkscape:window-maximized="1"
     fit-margin-top="0"
     fit-margin-left="0"
     fit-margin-right="0"
     fit-margin-bottom="0" />
  <metadata
     id="metadata5">
    <rdf:RDF>
      <cc:Work
         rdf:about="">
        <dc:format>image/svg+xml</dc:format>
        <dc:type
           rdf:resource="http://purl.org/dc/dcmitype/StillImage" />
        <dc:title></dc:title>
      </cc:Work>
    </rdf:RDF>
  </metadata>
  <g
     inkscape:label="Layer 1"
     inkscape:groupmode="layer"
     id="layer1"
     transform="translate(-21.925251,-64.877435)">
    <path
       style="color:#000000;clip-rule:nonzero;display:inline;overflow:visible;visibility:visible;opacity:1;isolation:auto;mix-blend-mode:normal;color-interpolation:sRGB;color-interpolation-filters:linearRGB;solid-color:#000000;solid-opacity:1;fill:#333333;fill-opacity:1;fill-rule:evenodd;stroke:none;stroke-width:5.05235815;stroke-linecap:round;stroke-linejoin:round;stroke-miterlimit:0.89999998;stroke-dasharray:none;stroke-dashoffset:0;stroke-opacity:1;color-rendering:auto;image-rendering:auto;shape-rendering:auto;text-rendering:auto;enable-background:accumulate"
       d="m 96.378683,64.87839 c -0.171865,-0.002 -0.344069,-7.9e-4 -0.516719,0.003 -2.531004,0.0597 -5.006435,0.75442 -7.198966,2.02026 -7.227514,4.17288 -9.703802,13.41472 -5.530948,20.64225 2.363166,4.08345 6.497938,6.82884 11.178438,7.4222 l -6.857221,11.87702 c 2.921865,1.68695 5.84367,3.37425 8.765542,5.06118 0.999059,0.5768 1.998185,1.15325 2.997243,1.73006 1.773588,1.02397 3.547258,2.04812 5.320848,3.07209 l 5.19117,2.99724 c 1.34033,0.77383 2.68083,1.54781 4.02117,2.32164 l -1.34072,-2.32164 -1.73006,-2.99724 -4.19581,-7.26725 -1.49863,-2.59575 -6.858859,-11.87932 c 1.989719,-0.24861 3.910069,-0.89073 5.649129,-1.88896 7.22752,-4.17287 9.7038,-13.41471 5.53095,-20.64224 -2.67677,-4.63644 -7.59867,-7.49898 -12.926557,-7.55483 z m -4.673466,5.59497 h 3.36e-4 c 0.133674,-0.002 0.267825,0.0244 0.390988,0.0765 0.964288,0.73389 1.597587,1.86876 2.398451,2.78156 1.519138,1.7503 2.247439,3.94582 2.819313,6.15567 0.101723,-0.12158 0.227222,-0.21272 0.383765,-0.26164 0.685795,-0.21433 1.414045,0.46622 1.919484,0.9668 0.776816,0.76935 0.37457,2.84079 1.479586,2.90105 1.17764,0.0642 0.75302,-2.73048 1.91948,-2.90105 1.46488,-0.21422 1.93858,3.03477 3.39906,2.79371 1.09409,-0.1806 0.73521,-2.25797 1.69954,-2.79371 0.49233,-0.27351 1.69953,0 1.69953,0 0,0.22902 -0.006,0.45668 -0.0181,0.68283 -0.0117,0.22617 -0.029,0.45094 -0.0522,0.67397 -0.0232,0.22304 -0.0523,0.44449 -0.0867,0.66412 -0.0344,0.21964 -0.0742,0.43734 -0.1195,0.65329 -0.0453,0.21594 -0.0961,0.43014 -0.15199,0.64213 -0.0559,0.21198 -0.11665,0.4219 -0.18286,0.62965 -0.0662,0.20775 -0.1378,0.41328 -0.21404,0.61652 -0.0763,0.20323 -0.15759,0.40396 -0.24359,0.6024 -0.086,0.19845 -0.17667,0.39459 -0.27215,0.58796 -0.0955,0.19337 -0.19573,0.38419 -0.30038,0.5722 -0.10465,0.18802 -0.21374,0.37307 -0.3273,0.55546 -0.11355,0.18238 -0.23139,0.3619 -0.35356,0.53839 -0.12217,0.17647 -0.24867,0.35003 -0.37917,0.52033 -0.13049,0.1703 -0.26492,0.33745 -0.40346,0.50129 -0.13854,0.16383 -0.28113,0.3245 -0.42743,0.48159 -0.1463,0.1571 -0.29598,0.31051 -0.44975,0.46059 -0.15377,0.15008 -0.31177,0.29678 -0.47273,0.43957 -0.16097,0.14279 -0.32521,0.28171 -0.49309,0.41692 -0.16787,0.13521 -0.33895,0.26659 -0.51343,0.39395 -0.1745,0.12735 -0.35264,0.25075 -0.53347,0.36997 -0.18083,0.11924 -0.36463,0.23421 -0.55152,0.34503 -0.18687,0.11083 -0.3766,0.21761 -0.56924,0.31975 -0.19265,0.10213 -0.38819,0.19966 -0.58632,0.29283 -0.19814,0.0932 -0.39875,0.18197 -0.60207,0.26591 -0.20333,0.0839 -0.40927,0.16294 -0.61751,0.23735 -0.20824,0.0744 -0.41908,0.14418 -0.63195,0.20879 -0.21286,0.0646 -0.427545,0.12405 -0.64475,0.17859 -0.217213,0.0546 -0.436614,0.1042 -0.657885,0.14838 -0.221268,0.0442 -0.444658,0.083 -0.669701,0.11655 -0.22504,0.0335 -0.452001,0.0617 -0.680536,0.0844 -0.228531,0.0226 -0.458647,0.0398 -0.690383,0.0512 -0.231735,0.0114 -0.46492,0.0174 -0.699576,0.0174 -0.234654,0 -0.468169,-0.006 -0.699903,-0.0174 -0.231737,-0.0114 -0.461525,-0.0286 -0.690056,-0.0512 -0.228532,-0.0226 -0.455821,-0.0508 -0.680863,-0.0844 -0.22504,-0.0336 -0.447774,-0.0724 -0.669045,-0.11655 -0.221267,-0.0442 -0.440674,-0.0938 -0.657883,-0.14838 -0.217208,-0.0546 -0.432213,-0.11397 -0.645081,-0.17859 -0.212865,-0.0646 -0.423712,-0.13437 -0.631949,-0.20879 -0.208242,-0.0744 -0.413848,-0.15342 -0.617177,-0.23735 -0.203331,-0.0839 -0.404271,-0.17274 -0.602403,-0.26591 -0.198126,-0.0932 -0.393671,-0.1907 -0.586317,-0.29283 -0.192647,-0.10214 -0.382366,-0.20893 -0.569246,-0.31975 -0.186881,-0.11082 -0.370692,-0.22579 -0.551519,-0.34503 -0.180828,-0.11922 -0.35864,-0.24261 -0.533135,-0.36997 -0.174481,-0.12737 -0.345892,-0.25875 -0.513756,-0.39396 -0.16788,-0.13521 -0.332123,-0.27414 -0.493085,-0.41692 -0.160962,-0.14279 -0.318625,-0.28949 -0.472403,-0.43957 -0.153775,-0.15008 -0.303771,-0.30348 -0.450078,-0.46059 -0.146292,-0.15709 -0.288893,-0.31776 -0.427428,-0.48159 -0.138538,-0.16384 -0.272963,-0.33099 -0.403462,-0.50129 -0.130491,-0.17031 -0.257001,-0.34385 -0.37917,-0.52033 -0.12216,-0.17649 -0.240002,-0.35601 -0.353562,-0.53839 -0.113549,-0.18239 -0.222648,-0.36744 -0.327301,-0.55546 -0.104659,-0.18801 -0.204914,-0.37883 -0.300381,-0.5722 -0.09547,-0.19337 -0.186147,-0.38952 -0.272148,-0.58796 -0.086,-0.19844 -0.167343,-0.39917 -0.243588,-0.6024 -0.07625,-0.20324 -0.147504,-0.40877 -0.213713,-0.61652 -0.0662,-0.20775 -0.127298,-0.41767 -0.183184,-0.62965 -0.05588,-0.21199 -0.106715,-0.42619 -0.151995,-0.64213 -0.04525,-0.21595 -0.08511,-0.43365 -0.119496,-0.65329 -0.03436,-0.21963 -0.06313,-0.44108 -0.08634,-0.66412 -0.02319,-0.22303 -0.04082,-0.4478 -0.05253,-0.67397 -0.01177,-0.22615 -0.01806,-0.45381 -0.01806,-0.68283 0,0 1.215655,-0.28752 1.699531,0 0.917358,0.5451 0.405656,2.76472 1.479253,2.79371 1.404908,0.0379 0.740604,-3.41958 2.140092,-3.54581 1.550741,-0.13987 1.514683,3.54064 3.068482,3.43813 1.09545,-0.0723 1.042891,-1.91924 1.809834,-2.68603 0.272244,-0.27219 0.57161,-0.66958 0.901471,-0.90475 -1.665787,-2.00875 -2.296501,-4.60765 -2.85411,-7.1041 -0.372858,-0.68001 -0.04068,-1.7261 0.83844,-1.71003 z m -0.05253,0.33846 c -0.08809,0.008 -0.174934,0.0334 -0.253108,0.0748 -0.153282,0.0814 -0.271272,0.22481 -0.322376,0.39066 -0.0511,0.16586 -0.03461,0.35202 0.04629,0.50556 0,0 0.772031,3.73225 1.628952,5.40915 0.856919,1.67689 3.429266,4.48963 3.429266,4.48963 0.345778,0.58528 0.661564,1.20883 0.974022,1.83314 -0.0084,0.0163 -0.01395,0.0266 -0.02265,0.0437 -0.348626,0.84192 -0.319998,2.25273 0.773112,3.14201 1.259149,1.02436 2.222725,1.89452 2.601655,2.68176 0.35586,0.73931 0.76253,-2.6272 -0.11555,-4.34551 -0.675729,-1.32233 -1.519126,-1.93267 -2.200826,-2.03963 -0.305474,-0.66101 -0.549597,-1.38083 -0.826623,-1.91981 0,0 -0.842348,-3.70145 -1.697233,-5.37436 -0.854887,-1.67292 -3.361312,-4.52443 -3.361312,-4.52443 -0.07859,-0.1586 -0.223154,-0.28388 -0.391645,-0.33813 -0.08425,-0.0271 -0.173889,-0.0365 -0.261971,-0.0286 z m 3.473914,10.16436 c 0.05048,0.84474 0.101022,1.65904 0.761949,1.68739 0.168059,0.007 0.301849,-0.0373 0.410685,-0.12048 -0.319197,-0.55604 -0.739439,-1.06567 -1.172634,-1.56691 z m -26.95057,18.19915 v 17.53141 h 10.121688 3.460781 6.142873 5.994159 4.64589 l -2.322945,-1.34137 -2.997243,-1.73006 -7.266921,-4.19582 -2.595422,-1.49862 z m 56.085219,0 -15.18253,8.76554 c 1.68704,2.92202 3.37447,5.84385 5.0615,8.76587 0.57681,0.99905 1.15359,1.99818 1.73039,2.99724 1.02375,1.77318 2.04736,3.54636 3.07111,5.31954 0.99917,1.73061 1.99808,3.4612 2.99724,5.19183 0.77398,1.34056 1.54831,2.68126 2.32229,4.02182 v -2.68111 -3.46144 -8.39064 -2.99724 z m -28.042445,19.94135 c -1.103101,6.8e-4 -2.058137,0.76651 -2.298981,1.843 -5.531096,0.48131 -10.778498,2.6594 -15.024626,6.23643 -0.363481,-0.21682 -0.77862,-0.3318 -1.201852,-0.33288 -1.302141,1e-5 -2.357731,1.0556 -2.357745,2.35774 0.001,0.42295 0.11575,0.83784 0.332226,1.2012 -3.582399,4.24582 -5.764967,9.49511 -6.248909,15.02922 -1.069966,0.24565 -1.828819,1.19724 -1.830189,2.29504 8.4e-4,1.1031 0.766502,2.05814 1.842992,2.29898 0.48138,5.53098 2.659471,10.77826 6.236434,15.0243 -0.21676,0.36361 -0.331633,0.77887 -0.332554,1.20218 1.4e-5,1.30214 1.055604,2.35773 2.357745,2.35774 0.42151,-6.7e-4 0.835057,-0.11488 1.197585,-0.32992 4.247096,3.58225 9.497717,5.76405 15.032833,6.24661 0.245615,1.06984 1.197033,1.82866 2.294713,1.83019 1.103939,-6.8e-4 2.059537,-0.76745 2.299637,-1.84497 5.535806,-0.474 10.789746,-2.64766 15.042356,-6.2233 0.35924,0.20964 0.76754,0.32053 1.18347,0.32139 1.30214,-1e-5 2.35773,-1.0556 2.35774,-2.35774 -0.001,-0.4223 -0.11539,-0.83658 -0.33124,-1.19955 3.59141,-4.24482 5.78173,-9.49672 6.27058,-15.03546 1.05918,-0.2542 1.80603,-1.20087 1.80721,-2.29012 -6.8e-4,-1.10394 -0.76745,-2.05954 -1.84497,-2.29964 -0.47461,-5.53535 -2.64827,-10.78867 -6.22396,-15.04071 0.21027,-0.35962 0.3215,-0.76853 0.32238,-1.18511 -1e-5,-1.30214 -1.0556,-2.35773 -2.35774,-2.35774 -0.42259,10e-4 -0.83712,0.1157 -1.20021,0.33189 -4.24477,-3.59123 -9.49654,-5.78142 -15.035136,-6.27025 -0.253938,-1.05944 -1.20067,-1.80694 -2.290117,-1.80819 z m -48.571101,0.5873 8.765542,15.18221 c 2.92187,-1.68696 5.843663,-3.37391 8.765541,-5.06085 0.999063,-0.5768 1.998181,-1.15358 2.997244,-1.73039 1.773339,-1.02383 3.54652,-2.0476 5.319861,-3.07143 1.730473,-0.99908 3.461027,-1.99817 5.191501,-2.99725 1.340832,-0.77412 2.681644,-1.54816 4.022478,-2.32229 h -2.681757 -3.460782 -8.391297 -2.997244 z m 79.610796,0 v 10.12136 3.46144 6.14255 5.99547 4.64326 l 1.34038,-2.32163 1.73072,-2.9979 4.19549,-7.26659 1.49862,-2.59608 8.76587,-15.18188 z m -31.039695,0.42316 c 0.744082,1e-5 1.347274,0.60321 1.347283,1.34729 -9e-6,0.74408 -0.603201,1.34727 -1.347283,1.34728 -0.744209,1.7e-4 -1.347604,-0.60308 -1.347609,-1.34728 5e-6,-0.74421 0.6034,-1.34746 1.347609,-1.34729 z m -2.217894,2.14075 c 0.334985,0.93732 1.222519,1.56329 2.217894,1.56428 0.982078,-0.001 1.860442,-0.61138 2.204763,-1.53112 5.226402,0.45927 10.185472,2.51335 14.205882,5.88418 -0.15899,0.32231 -0.24252,0.67668 -0.24359,1.03607 2e-5,1.30214 1.05594,2.35773 2.35808,2.35774 0.36085,-5e-4 0.71676,-0.0839 1.04033,-0.24358 3.37245,4.01808 5.4287,8.97525 5.89108,14.20063 -0.92617,0.34125 -1.54143,1.22329 -1.54228,2.21034 10e-4,0.9822 0.61094,1.86072 1.53079,2.20509 -0.45918,5.22637 -2.51282,10.18543 -5.88353,14.20589 -0.3224,-0.15904 -0.6769,-0.24225 -1.03639,-0.24326 -1.30214,1e-5 -2.35806,1.0556 -2.35808,2.35774 5.1e-4,0.35997 0.0837,0.71505 0.24261,1.03804 -4.01744,3.37302 -8.97414,5.43041 -14.199321,5.8937 -0.341251,-0.92618 -1.223298,-1.54176 -2.210344,-1.54261 -0.98154,0.001 -1.859619,0.6105 -2.204434,1.52948 -5.227527,-0.45071 -10.190296,-2.4969 -14.216389,-5.86153 0.165547,-0.32784 0.252219,-0.68982 0.253108,-1.05708 -1.4e-5,-1.30214 -1.055604,-2.35773 -2.357744,-2.35774 -0.360107,5e-4 -0.715313,0.0835 -1.038367,0.2426 -3.379199,-4.01299 -5.443814,-8.96733 -5.914385,-14.19242 0.936943,-0.33517 1.562595,-1.22248 1.563623,-2.21757 -0.0013,-0.98154 -0.610501,-1.85962 -1.52948,-2.20444 0.451058,-5.22752 2.497592,-10.19017 5.862515,-14.21606 0.327568,0.16529 0.68919,0.25184 1.056094,0.25278 1.30214,-1e-5 2.35773,-1.0556 2.357744,-2.35774 -5.05e-4,-0.36049 -0.08378,-0.71606 -0.24326,-1.03935 4.013204,-3.3792 8.967796,-5.44371 14.193081,-5.91406 z m 2.217894,4.93249 c -1.110264,6.7e-4 -2.069676,0.7757 -2.303576,1.86104 -9.441724,1.1617 -16.540733,9.17244 -16.558704,18.68534 0.0142,9.51701 7.115987,17.53267 16.561987,18.69321 0.236837,1.08102 1.193639,1.85184 2.300293,1.85317 1.110265,-6.7e-4 2.069676,-0.7757 2.303577,-1.86105 9.441598,-1.16184 16.540428,-9.17254 16.558378,-18.68533 -0.0142,-9.51701 -7.11599,-17.53266 -16.561988,-18.69321 -0.236813,-1.0809 -1.193435,-1.85169 -2.299967,-1.85317 z m -18.525459,0.67364 c 0.744081,0 1.347275,0.6032 1.347282,1.34728 -7e-6,0.74408 -0.603201,1.34728 -1.347282,1.34728 -0.74408,0 -1.347274,-0.6032 -1.347283,-1.34728 9e-6,-0.74408 0.603203,-1.34728 1.347283,-1.34728 z m 37.050594,0 c 0.74408,0 1.34727,0.6032 1.34728,1.34728 -1e-5,0.74408 -0.6032,1.34728 -1.34728,1.34728 -0.74408,0 -1.34728,-0.6032 -1.34729,-1.34728 1e-5,-0.74408 0.60321,-1.34728 1.34729,-1.34728 z m -18.525135,0.33715 c 0.743952,0 1.347093,0.603 1.347283,1.34695 1.68e-4,0.74421 -0.603073,1.3476 -1.347283,1.34761 -0.744336,1.7e-4 -1.347784,-0.60328 -1.347609,-1.34761 1.68e-4,-0.74408 0.60353,-1.34713 1.347609,-1.34695 z m -25.720157,2.00385 -2.322617,1.34104 -2.997244,1.73039 -7.267248,4.19549 -2.595751,1.49895 -15.182203,8.76554 15.182203,8.76554 c 1.686914,-2.9218 3.373612,-5.84372 5.060515,-8.76554 0.576893,-0.99922 1.153829,-1.99837 1.73072,-2.99757 1.023773,-1.77324 2.047996,-3.5463 3.071764,-5.31953 0.999078,-1.73047 1.998168,-3.46104 2.997244,-5.1915 0.774209,-1.34099 1.548408,-2.68183 2.322617,-4.02281 z m 23.517693,0.18285 c 0.348307,0.91379 1.224546,1.51771 2.202464,1.51799 0.975405,-0.001 1.849347,-0.60296 2.198526,-1.51372 8.741319,1.10606 15.300209,8.53362 15.316149,17.34462 -0.0136,8.81141 -6.57105,16.24095 -15.312537,17.34888 -0.348269,-0.91367 -1.224341,-1.51757 -2.202138,-1.51799 -0.975523,0.001 -1.849632,0.60285 -2.198854,1.51373 -8.741313,-1.10607 -15.300212,-8.53362 -15.316143,-17.34462 0.01355,-8.81141 6.571042,-16.24095 15.312533,-17.34889 z m 43.105149,8.58335 c -1.68686,2.9217 -3.37333,5.84351 -5.06018,8.76521 -0.57698,0.99936 -1.15472,1.99853 -1.73171,2.9979 -1.02374,1.77319 -2.04736,3.54635 -3.0711,5.31953 -0.99923,1.73071 -1.99802,3.46146 -2.99725,5.19216 -0.77383,1.34034 -1.54812,2.68083 -2.32196,4.02117 l 2.32196,-1.34039 2.99725,-1.73072 7.26659,-4.19516 2.5964,-1.49927 15.18188,-8.76522 z m -40.902685,2.02913 c -3.720531,-1.5e-4 -6.736707,3.01588 -6.736739,6.73641 3.6e-5,3.72053 3.01621,6.73656 6.736739,6.73641 3.720402,-4e-5 6.736375,-3.01601 6.736415,-6.73641 -4e-5,-3.72041 -3.016011,-6.73637 -6.736415,-6.73641 z m -31.040018,4.41346 -1.341045,2.32229 -1.730719,2.9979 -4.195484,7.26692 -1.498293,2.59542 -7.362452,12.75191 c -0.407675,-0.54553 -0.851763,-1.06288 -1.329227,-1.54852 -2.046991,-2.0468 -4.638806,-3.46258 -7.467174,-4.07894 -5.026646,-1.0956 -10.265361,0.44147 -13.903204,4.07927 -5.90125,5.90128 -5.90125,15.4691 0,21.37038 5.901365,5.90116 15.469194,5.90101 21.370378,-3.4e-4 4.577023,-4.5891 5.717767,-11.58598 2.835399,-17.39123 h 14.621821 v -10.12136 -3.46111 -6.14255 -5.99547 z m 4.767685,0.976 c 0.743951,0 1.347093,0.603 1.347283,1.34695 -8e-6,0.74408 -0.603202,1.34728 -1.347283,1.34728 -0.74408,0 -1.347275,-0.6032 -1.347281,-1.34728 1.68e-4,-0.74395 0.60333,-1.34695 1.347281,-1.34695 z m 52.544338,0 c 0.74395,0 1.34709,0.603 1.34728,1.34695 0,0.74408 -0.6032,1.34728 -1.34728,1.34728 -0.74408,0 -1.34728,-0.6032 -1.34728,-1.34728 1.7e-4,-0.74395 0.60333,-1.34695 1.34728,-1.34695 z m 13.5329,14.20719 c -2.92171,1.68685 -5.8435,3.37367 -8.76521,5.06052 -0.99921,0.57689 -1.99804,1.15382 -2.99725,1.73072 -1.77308,1.02367 -3.54613,2.04741 -5.3192,3.0711 -1.73097,0.99937 -3.46186,1.99853 -5.19282,2.9979 -1.34033,0.77383 -2.68084,1.54781 -4.02116,2.32164 h 2.68045 3.46242 8.39031 2.99725 14.60869 c -1.03527,2.0841 -1.57554,4.37914 -1.57807,6.70621 -7e-5,8.34576 6.76586,15.11136 15.11162,15.11129 8.34576,6e-5 15.11104,-6.76553 15.11097,-15.11129 7e-5,-8.34577 -6.76521,-15.11136 -15.11097,-15.1113 -4.71799,0.004 -9.16335,2.2128 -12.01753,5.96954 z m -67.847679,0.64804 v 2.68176 3.46078 8.3913 2.99757 17.53108 l 15.18286,-8.76554 c -1.686951,-2.92184 -3.374229,-5.84368 -5.061172,-8.76554 -0.576896,-0.99921 -1.153824,-1.99836 -1.73072,-2.99757 -1.023746,-1.77316 -2.047364,-3.54638 -3.071107,-5.31954 -0.999083,-1.73047 -1.998163,-3.46104 -2.997244,-5.1915 -0.774211,-1.34097 -1.548406,-2.68182 -2.322617,-4.0228 z m 28.042774,3.33275 c 0.74421,0 1.347458,0.6034 1.347283,1.34761 -9e-6,0.74408 -0.603201,1.34727 -1.347283,1.34728 -0.744209,1.7e-4 -1.347604,-0.60308 -1.347609,-1.34728 -1.69e-4,-0.74433 0.603273,-1.34778 1.347609,-1.34761 z m -18.525459,0.33715 c 0.744081,0 1.347275,0.6032 1.347282,1.34728 -7e-6,0.74408 -0.603201,1.34728 -1.347282,1.34728 -0.74408,0 -1.347274,-0.6032 -1.347283,-1.34728 9e-6,-0.74408 0.603203,-1.34728 1.347283,-1.34728 z m 37.050594,0 c 0.74408,0 1.34727,0.6032 1.34728,1.34728 -1e-5,0.74408 -0.6032,1.34728 -1.34728,1.34728 -0.74408,0 -1.34728,-0.6032 -1.34729,-1.34728 1e-5,-0.74408 0.60321,-1.34728 1.34729,-1.34728 z m 40.46311,6.35199 c 0.70299,0.001 1.41312,0.25975 1.94509,0.77048 l 8.69923,8.89193 c 3.45796,3.45797 -3.82918,4.2592 -5.93769,5.49057 -0.73407,0.74907 2.25604,1.24887 1.94804,2.17161 -0.62349,1.86736 -2.32025,0.68125 -4.14263,2.54486 -0.73282,0.74907 1.40187,0.67835 0.66904,1.42804 -1.38318,1.01209 -4.21094,1.71668 -4.4371,0.48094 -0.31737,-1.72927 -2.01263,-1.0194 -2.74545,-1.76847 -0.73282,-0.74906 1.50003,-1.54368 0.76721,-2.29274 -0.73408,-0.74908 -4.43241,-1.44322 -5.16524,-2.19229 -0.73283,-0.7497 2.80889,-1.30271 2.07607,-2.05178 -2.04291,-1.01146 -6.80895,-0.60304 -3.97323,-4.11473 l 8.39326,-8.58794 c 0.50449,-0.51635 1.20041,-0.77189 1.9034,-0.77048 z m 0.0752,0.8171 c -0.50191,-0.003 -1.00522,0.17998 -1.37256,0.55546 -0.73096,0.74719 -2.07602,2.03645 -3.24805,3.30156 -0.67097,0.67097 -0.58415,1.60827 0.15429,1.60827 h 1.81214 l 1.18478,-2.05047 0.7301,2.93815 2.20608,-1.39357 1.37781,0.72683 0.32369,-1.95264 1.64898,1.31872 c 0.17618,-0.17931 0.18061,-0.80264 -0.13427,-1.12438 l -3.3206,-3.37247 c -0.36017,-0.36486 -0.86049,-0.55279 -1.36239,-0.55546 z m -59.063423,0.57778 c 0.744082,1e-5 1.347274,0.6032 1.347283,1.34728 -1.68e-4,0.74395 -0.603331,1.34695 -1.347283,1.34696 -0.744079,1.6e-4 -1.347421,-0.60288 -1.347609,-1.34696 5e-6,-0.74421 0.6034,-1.34745 1.347609,-1.34728 z m -55.492338,1.15917 -0.02101,0.53544 c 0.18277,1.13733 0.240185,1.5819 0.125733,2.7054 -0.668833,0.10554 -1.34474,0.15901 -2.028146,0.11851 -0.705976,-0.0173 -1.425081,-0.0393 -2.138121,-0.005 0.643712,-0.29586 1.220639,-0.69459 1.766504,-1.12076 0.886407,-0.69169 1.495227,-1.45062 2.29504,-2.23333 z m 37.961254,-0.36406 1.340389,2.32196 1.73072,2.99757 4.195483,7.26725 1.49895,2.59608 8.765214,15.18187 8.765541,-15.1822 c -2.92171,-1.68686 -5.843499,-3.37398 -8.765213,-5.06085 -0.999305,-0.57694 -1.998594,-1.15377 -2.997899,-1.73072 -1.773237,-1.02377 -3.546298,-2.04766 -5.319533,-3.07143 -1.730618,-0.99917 -3.461212,-1.99841 -5.19183,-2.99757 -1.340578,-0.77398 -2.681245,-1.54797 -4.021822,-2.32196 z m -32.153233,1.37354 c 0.507546,1.35277 0.35364,2.82106 -0.173006,4.0773 -0.785688,1.80201 -2.493057,3.09394 -4.232581,4.23127 0.180586,0.3331 2.035011,0.18876 0.783617,0.66839 -0.08262,0.0522 -0.150871,0.10714 -0.209445,0.16381 -1.69e-4,7e-5 -0.0056,0.002 -0.0056,0.002 0,0 -0.0017,0.004 -0.0017,0.004 -0.454228,0.44733 -0.194642,1.01717 0.343059,1.48713 -0.433419,0.50224 -2.428827,0.7797 -1.023594,1.66145 0.795771,0.27597 -0.540807,1.55687 0.720586,1.2511 1.198584,-0.54385 -0.395151,0.55058 -0.709096,0.77475 -2.971757,2.00435 -7.246928,2.83311 -11.217831,1.77963 -0.467144,-0.12451 -1.586536,-0.38128 -2.350194,-0.67692 -1.47238,-0.53324 -2.705623,-1.52111 -3.468005,-2.69653 0.27617,-0.20331 0.86393,-0.67639 1.132256,-1.19726 0.357174,-0.69334 0.441215,-1.46547 0.43071,-1.5285 -0.0062,-0.0372 -0.104603,-0.15282 -0.195658,-0.25507 0.01585,-0.009 0.03283,-0.0179 0.0476,-0.0282 3.266242,-0.82398 3.117323,-3.1479 4.599932,-4.52705 1.102248,-1.02482 2.377971,-1.81831 3.94927,-2.23037 0.347237,-0.0912 0.718796,-0.14761 1.10271,-0.1822 0.489448,-0.044 0.99952,-0.0521 1.506173,-0.0479 0.357879,0.003 0.714071,0.0115 1.060688,0.0174 0.11045,0.002 0.219793,0.003 0.327959,0.005 0.01744,5e-5 0.03468,6.7e-4 0.05253,6.7e-4 0.03123,-4e-5 0.06277,3.4e-4 0.09389,3.4e-4 0.06417,1.5e-4 0.127959,5e-4 0.191062,3.3e-4 0.07157,-3.3e-4 0.142673,-6.7e-4 0.212728,-0.003 0.0093,5e-4 0.01916,-3.4e-4 0.02856,-3.4e-4 0.04305,-6.7e-4 0.08535,-0.002 0.127703,-0.003 0.01353,-3.4e-4 0.02668,-6.8e-4 0.04038,-0.002 0.04204,-0.001 0.08425,-0.002 0.126061,-0.004 0.0098,0 0.01958,-6.7e-4 0.02955,-0.001 0.05143,-0.003 0.102529,-0.005 0.152652,-0.008 5.05e-4,-3.3e-4 6.73e-4,-3.3e-4 6.73e-4,-3.3e-4 0.002,-1.1e-4 0.005,-6.7e-4 0.0069,-6.7e-4 0.04606,-0.003 0.09174,-0.006 0.136567,-0.01 0.01414,-0.001 0.02787,-0.003 0.04202,-0.004 0.0338,-0.003 0.0675,-0.006 0.101112,-0.01 0.01572,-0.002 0.03211,-0.003 0.04793,-0.005 0.03068,-0.003 0.06084,-0.007 0.09094,-0.0108 0.01877,-0.003 0.03757,-0.005 0.05614,-0.008 0.0051,-5.1e-4 0.01072,-0.002 0.01674,-0.002 0.03588,-0.005 0.0708,-0.0109 0.105708,-0.0167 0.02937,-0.006 0.06106,-0.0112 0.09159,-0.0167 0.01276,-0.003 0.02492,-0.004 0.03775,-0.007 1.934533,-0.35861 4.833956,-0.95308 5.792262,-2.64138 z m 2.232012,3.72308 c 0.03363,1.7e-4 0.06917,0.002 0.107021,0.005 1.023791,0.5728 0.418386,2.03382 -0.66084,2.04423 0.439936,-0.56796 -0.4887,-2.05553 0.553819,-2.04949 z m 45.130017,0.22291 2.32196,1.34072 2.9979,1.73071 7.266261,4.19549 2.59674,1.49895 15.18187,8.76521 v -17.53108 h -10.12103 -3.46176 -6.14222 -5.995469 z m -46.798035,2.11514 c 0.0199,-0.002 0.04036,5e-4 0.06205,0.007 0.0885,0.0244 0.302484,0.13763 0.333867,0.25738 0.07132,0.27599 -0.109343,0.81048 -0.42907,0.71106 -0.354656,-0.11032 -0.265316,-0.94956 0.03316,-0.97468 z m -14.18553,0.0663 c -0.0378,10e-4 -0.07722,0.004 -0.118182,0.008 -1.056271,0.30778 -1.639793,1.22942 -1.780947,2.13385 1.156727,-0.52024 1.354101,1.20197 0.834173,1.72382 -0.165902,0.23342 0.2179,0.11194 0.312526,0.0985 1.333099,0.0181 1.431278,-0.97345 1.522916,-1.85415 0.06233,-0.58862 0.339001,-1.86329 -0.47109,-2.07903 l 3.36e-4,-3.4e-4 c -0.0868,-0.0233 -0.186311,-0.0342 -0.299726,-0.0309 z m 15.667081,0.28102 c 0.0294,-0.001 0.06002,0.001 0.08798,0.009 0.03367,0.008 0.06299,0.0233 0.08207,0.0456 0.528858,0.6346 0.532557,2.05768 -0.531494,2.11712 -0.333014,0.0395 -0.705082,0.0608 -1.040663,-0.0499 0.657219,-0.52534 0.458862,-1.77427 1.321676,-2.10595 0.02281,-0.009 0.05103,-0.0141 0.08043,-0.0154 z m -17.232016,1.93589 c -0.05412,0.004 -0.110761,0.0273 -0.162829,0.0716 -0.138967,0.11799 -0.193509,0.33929 -0.122451,0.49505 0.07082,0.15533 0.241609,0.18624 0.380482,0.0686 l 3.36e-4,-0.001 c 0.138639,-0.11809 0.193348,-0.33996 0.122122,-0.49506 -0.03556,-0.0776 -0.09556,-0.12423 -0.164472,-0.13624 v 3.4e-4 c -0.01722,-0.003 -0.03515,-0.005 -0.05318,-0.003 z m 12.356982,0.33288 c 1.060504,0.11364 2.140032,0.0721 3.170249,0.0446 -0.559466,1.81547 -2.061146,3.17775 -3.49755,4.51261 -0.06165,-0.0388 -0.340969,-0.21263 -0.427755,-0.19927 -0.09657,0.0149 -0.401213,0.19321 -0.364069,0.0446 0.03714,-0.14857 0.05963,-0.67605 -0.0072,-0.80233 -0.06686,-0.12628 -0.601705,-0.34157 -0.638843,-0.43071 -0.03714,-0.0891 0.02966,-0.19322 0.155936,-0.30465 0.12628,-0.11142 0.623845,-0.34161 0.80955,-0.45303 0.185707,-0.11143 0.512454,-0.42349 0.512454,-0.42349 0,0 -0.349122,-0.45315 -0.438261,-0.57943 -0.08914,-0.12627 -0.170759,-0.44554 -0.07419,-0.60896 0.09657,-0.16343 0.557127,-0.20812 0.698263,-0.3864 0.09029,-0.11404 0.102865,-0.29369 0.101441,-0.41364 z m -17.69457,1.21532 c 0.04964,0.0907 0.254741,0.15647 0.116541,0.43103 -0.20027,0.76951 -0.578871,1.52623 -1.201852,2.03866 -0.05483,-0.1759 -0.12083,-0.16852 -0.163486,-0.0903 -0.195132,-0.39088 -0.31543,-0.78275 -0.466493,-1.25011 -0.26951,-1.13936 0.882648,-0.92334 1.71529,-1.1293 z m 125.284449,0.48192 c -1.0933,0 3.24006,1.75998 4.13344,1.52259 0.39609,-0.19993 0.59959,-0.49618 0.3122,-0.55678 -0.82904,-0.13744 -4.22136,-0.8265 -4.44564,-0.96581 z m 13.3182,2.36004 c 0.63925,0.0161 1.2607,0.31931 1.47039,0.92609 0,0.80591 -3.13939,0.52654 -3.13939,0.10046 0.19714,-0.69466 0.94453,-1.04486 1.669,-1.02655 z m -131.726717,0.14313 c -0.01745,0.002 -0.03604,0.0155 -0.05482,0.0466 -0.04369,0.10906 -0.103372,0.12638 -0.269523,0.25376 -0.730878,0.44285 -1.507381,1.02177 -2.192287,1.32825 -0.09543,0.0611 -0.649521,0.18908 -0.892936,0.19204 1.626325,0.33256 3.550129,-0.31543 3.488685,-1.52291 0.04542,-0.0762 0.0037,-0.27158 -0.06205,-0.29579 -0.0055,-0.002 -0.01126,-0.003 -0.01707,-0.002 z m 117.205357,1.70282 c 0.38499,0.004 0.74385,0.11852 0.94644,0.3877 -0.34423,0.89713 -1.49251,1.69994 -2.23595,1.05708 -0.84868,-0.73507 0.30563,-1.4539 1.28951,-1.44478 z m 12.45874,0.0561 c 1.04642,0.21366 1.2627,0.96257 1.05216,1.17624 -0.9446,0.55541 -2.01051,-0.3166 -1.05216,-1.17624 z"
       id="path4146-1-4-0"
       inkscape:connector-curvature="0"
       sodipodi:nodetypes="scccccccccccccccccscccccccccccccccccccccccccccccccccccccccccccscsccccccccscccccccccccsccccccccccsccccccccccscccsscccscccccccccccccccccccccccccccccccccccccccccccccccccccccccccccccccsccsccccccccccccccccccccccccccccccccccccccccccccccccccccccccccccccccccccccccccccccccccccccscccccccccccccsccccccccccccccccccccccccccccccccccccccccccccccccccccccccccccccccccccsccccccccccccccccccccccccccccccccccscccccccccccccccccccccccccccccccsccccccccccccccccccccccccccccccccccccccccccccccccccccccccccccccccccccccccccccccccccccccccccccccccccccccccczcccccccccccccccccccccccccccccccccccccccccc" />
  </g>
</svg>
